<svg width="668" height="473" viewBox="0 0 668 473" fill="none" xmlns="http://www.w3.org/2000/svg">
<g clip-path="url(#clip0)">
<path opacity="0.1" d="M222.082 472.734C254.613 472.734 280.985 468.5 280.985 463.277C280.985 458.054 254.613 453.82 222.082 453.82C189.551 453.82 163.18 458.054 163.18 463.277C163.18 468.5 189.551 472.734 222.082 472.734Z" fill="#00C4CC"/>
<path opacity="0.1" d="M542.269 473C582.863 473 615.771 468.766 615.771 463.543C615.771 458.32 582.863 454.086 542.269 454.086C501.676 454.086 468.768 458.32 468.768 463.543C468.768 468.766 501.676 473 542.269 473Z" fill="#00C4CC"/>
<path opacity="0.1" d="M8.36625 204.37H69.7173V287.961H12.8577C12.7066 288.819 12.5615 289.683 12.4043 290.547H69.7173V357.962C69.6145 357.932 69.5238 357.895 69.4271 357.859C67.807 357.218 66.1991 356.542 64.5911 355.817L63.5634 355.351C61.9514 354.59 60.3394 353.784 58.7274 352.934C58.1652 352.638 57.603 352.33 57.0469 352.016C48.0977 347.004 39.9679 340.654 32.9393 333.186C32.7338 332.987 32.5403 332.775 32.3348 332.582C31.3555 331.518 30.3943 330.442 29.4634 329.343L28.4358 328.134C27.3356 326.787 26.2716 325.403 25.2379 324.001C25.0868 323.795 24.9417 323.59 24.7846 323.396C20.5805 317.57 17.0898 311.26 14.3871 304.603C14.3025 304.404 14.2299 304.186 14.1513 303.999C13.3212 301.864 12.5857 299.708 11.9449 297.533C11.6668 296.621 11.4009 295.72 11.1711 294.771C11.0865 294.493 11.014 294.221 10.9475 293.95C7.5139 280.553 7.10889 266.636 7.10889 252.816C7.10889 251.202 7.10889 249.583 7.10889 247.981C7.10889 242.392 7.17538 236.766 7.2721 231.146C7.2721 229.69 7.33255 228.239 7.36278 226.777C7.44741 223.067 7.56831 219.356 7.72548 215.646C7.76175 214.613 7.81011 213.585 7.86452 212.558C7.86452 211.966 7.89474 211.374 7.95519 210.781C8.10027 208.63 8.22117 206.497 8.36625 204.37Z" fill="#00C4CC"/>
<path opacity="0.1" d="M69.7174 111.298H36.0647C41.5351 102.738 47.5122 94.5135 53.964 86.6669C58.9633 80.5274 64.2406 74.5449 69.7174 68.78V111.298Z" fill="#00C4CC"/>
<path opacity="0.1" d="M69.7174 113.884V201.784H8.55981C8.55981 201.53 8.60213 201.27 8.62026 201.016C8.67467 200.321 8.72907 199.626 8.78952 198.938C8.85602 198.128 8.92856 197.312 9.00715 196.52C9.08573 195.729 9.17036 194.762 9.26104 193.886C9.35171 193.009 9.43634 192.121 9.53911 191.245C9.64187 190.369 9.73255 189.492 9.84136 188.622C9.95017 187.752 10.0469 186.87 10.1617 186C10.2524 185.275 10.3491 184.555 10.4459 183.83C10.5849 182.809 10.73 181.782 10.8872 180.767C10.8872 180.616 10.9295 180.458 10.9536 180.313C12.057 172.882 13.5603 165.515 15.4572 158.245C17.4427 150.619 19.9782 143.146 23.0437 135.886C26.3018 128.291 30.1165 120.947 34.4567 113.914L69.7174 113.884Z" fill="#00C4CC"/>
<path opacity="0.1" d="M84.3645 204.364V287.961H215.403V204.364H84.3645ZM84.3645 290.541V362.331C85.1141 362.488 85.8576 362.639 86.5951 362.766C87.5986 362.959 88.596 363.134 89.6176 363.286C89.8111 363.316 90.0106 363.346 90.2221 363.364C90.6211 363.431 91.0322 363.485 91.4311 363.539C92.4407 363.678 93.4441 363.793 94.4537 363.884C94.9312 363.932 95.4148 363.974 95.8984 364.011L97.0651 364.101C97.6998 364.15 98.3285 364.186 98.9512 364.204C99.338 364.204 99.7249 364.24 100.124 364.252C100.426 364.252 100.728 364.252 101.043 364.252C101.357 364.252 101.804 364.252 102.185 364.252C102.705 364.252 103.225 364.252 103.739 364.252H104.434C104.954 364.252 105.474 364.252 105.988 364.204H106.024C106.381 364.204 106.743 364.204 107.106 364.156C107.207 364.162 107.307 364.162 107.408 364.156C107.71 364.156 108.013 364.156 108.303 364.113H108.514L110.539 363.956C111.204 363.896 111.875 363.817 112.552 363.745L113.931 363.582C119.538 362.796 125.083 361.617 130.524 360.053C142.747 356.644 154.704 351.877 166.921 348.384C182.717 343.882 200.169 341.67 215.433 347.175V290.541H84.3645ZM215.403 111.298V0.00603721C201.056 -0.149339 186.749 1.52804 172.827 4.99745C139.646 13.3306 109.875 31.4048 84.3645 54.4886V111.292H90.9415V113.872H84.3645V201.784H215.403V113.878H117.945V111.298H215.403ZM383.714 73.7049C375.505 73.4149 367.344 70.8164 359.963 66.804C345.848 59.1295 334.574 47.2794 321.976 37.2785C295.802 16.4487 263.34 3.87952 230.038 0.761397V111.298H417.101L417.567 110.808L383.714 73.7049ZM400.755 70.6835L418.824 90.5041V65.4866C412.773 66.2359 407.471 68.0186 400.779 70.6593L400.755 70.6835ZM418.824 380.157V290.541H380.323C380.22 290.161 380.118 289.774 379.997 289.387C380.112 289.774 380.208 290.161 380.317 290.541H230.062V355.351C231.488 356.409 232.897 357.521 234.293 358.651C235.799 359.859 237.286 361.134 238.779 362.385L240.284 363.63C241.003 364.234 241.729 364.839 242.46 365.407C243.911 366.583 245.376 367.743 246.855 368.887C247.586 369.492 248.336 370.035 249.079 370.603C260.884 379.625 273.336 387.767 286.335 394.962C289.249 396.574 292.189 398.147 295.155 399.682C297.131 400.691 299.12 401.694 301.115 402.667C304.113 404.129 307.136 405.539 310.183 406.897C338.272 419.501 367.974 428.151 398.44 432.597C405.206 433.596 411.999 434.382 418.818 434.954V380.151H419.422L418.824 380.157ZM230.062 113.878V201.784H418.848V113.878H230.062ZM230.062 204.364V287.961H418.848V204.364H230.062ZM433.501 65.3779V93.2839L456.563 67.9884C448.922 66.7556 441.235 65.8754 433.501 65.3476V65.3779ZM433.501 204.394V287.961H617.119V204.364L433.501 204.394ZM616.448 386.792L617.095 290.541H433.501V435.915C445.328 436.412 457.174 436.27 468.986 435.492H469.191C474.833 435.137 480.449 434.622 486.039 433.945H486.166C515.986 430.476 545.145 422.698 572.73 410.855L616.448 386.792ZM652.525 218.13C651.836 216.504 651.116 214.891 650.385 213.295C649.019 210.274 647.574 207.337 646.087 204.4H631.76V287.961H667.982C667.964 264.297 661.973 240.126 652.543 218.099L652.525 218.13ZM631.76 290.572V373.359C641.964 363.582 650.584 352.396 656.793 339.61C664.258 324.212 667.674 307.54 667.952 290.56L631.76 290.572ZM631.76 180.035V201.79H644.745C640.817 194.301 636.488 187.029 631.778 180.005L631.76 180.035ZM507.232 81.7782C506.277 81.4157 505.322 81.047 504.361 80.6905C494.224 76.9483 483.865 73.8363 473.344 71.3724L438.053 110.089L437.376 110.808L437.829 111.304H563.433C545.94 99.2666 527.081 89.3454 507.251 81.748L507.232 81.7782ZM567.115 113.908H436.076L433.501 116.265V201.784H456.073H456.11H617.143V160.36C602.576 142.748 585.763 127.121 567.133 113.878L567.115 113.908Z" fill="#00C4CC"/>
<path opacity="0.1" d="M69.7174 158.221V201.784H8.55981C8.55981 201.53 8.60213 201.27 8.62026 201.016C8.67467 200.321 8.72907 199.626 8.78952 198.937C8.85602 198.128 8.92856 197.312 9.00715 196.52C9.08573 195.729 9.17036 194.762 9.26104 193.886C9.35171 193.009 9.43634 192.121 9.53911 191.245C9.64187 190.369 9.73255 189.492 9.84136 188.622C9.95017 187.752 10.0469 186.87 10.1617 186C10.2524 185.275 10.3491 184.555 10.4459 183.83C10.5849 182.809 10.73 181.782 10.8872 180.767C10.8872 180.615 10.9295 180.458 10.9536 180.313C12.057 172.882 13.5603 165.515 15.4572 158.245L69.7174 158.221Z" fill="#00C4CC"/>
<path opacity="0.1" d="M8.36625 204.37H69.7173V287.961H12.8577C12.7066 288.819 12.5615 289.683 12.4043 290.547H69.7173V357.962C69.6145 357.932 69.5238 357.895 69.4271 357.859C67.807 357.218 66.1991 356.542 64.5911 355.817L63.5634 355.351C61.9514 354.59 60.3394 353.784 58.7274 352.934C58.1652 352.638 57.603 352.33 57.0469 352.016C48.0977 347.004 39.9679 340.654 32.9393 333.186C32.7338 332.987 32.5403 332.775 32.3348 332.582C31.3555 331.518 30.3943 330.442 29.4634 329.343L28.4358 328.134C27.3356 326.787 26.2716 325.403 25.2379 324.001C25.0868 323.795 24.9417 323.59 24.7846 323.396C20.5805 317.57 17.0898 311.26 14.3871 304.603C14.3025 304.404 14.2299 304.186 14.1513 303.999C13.3212 301.864 12.5857 299.708 11.9449 297.533C11.6668 296.621 11.4009 295.72 11.1711 294.771C11.0865 294.493 11.014 294.221 10.9475 293.95C7.5139 280.553 7.10889 266.636 7.10889 252.816C7.10889 251.202 7.10889 249.583 7.10889 247.981C7.10889 242.392 7.17538 236.766 7.2721 231.146C7.2721 229.69 7.33255 228.239 7.36278 226.777C7.44741 223.067 7.56831 219.356 7.72548 215.646C7.76175 214.613 7.81011 213.585 7.86452 212.558C7.86452 211.966 7.89474 211.374 7.95519 210.781C8.10027 208.63 8.22117 206.497 8.36625 204.37Z" fill="#00C4CC"/>
<path opacity="0.1" d="M130.494 126.465V201.784H84.3645V126.465H90.9415V100.964H117.939V126.465H130.494Z" fill="#00C4CC"/>
<path opacity="0.1" d="M130.494 204.364H84.3704V287.955H130.494V204.364Z" fill="#00C4CC"/>
<path opacity="0.1" d="M84.3645 290.547H130.494V360.041C125.053 361.604 119.508 362.781 113.901 363.564L112.522 363.733C111.845 363.811 111.174 363.878 110.509 363.944C109.844 364.011 109.155 364.059 108.484 364.101H108.273C107.982 364.101 107.668 364.138 107.384 364.144H107.076C106.713 364.144 106.35 364.18 105.988 364.192C105.474 364.222 104.96 364.228 104.434 364.234C104.21 364.234 103.999 364.234 103.775 364.234C103.255 364.234 102.741 364.234 102.222 364.234H101.079C100.771 364.234 100.475 364.234 100.154 364.234L98.9874 364.192C98.3829 364.192 97.7301 364.126 97.1014 364.083L95.9407 363.999L94.496 363.866C93.4804 363.775 92.4709 363.66 91.4735 363.521L90.2644 363.352L89.6599 363.267C88.6504 363.11 87.653 362.941 86.6374 362.748C85.8939 362.621 85.1564 362.464 84.4068 362.313L84.3645 290.547Z" fill="#00C4CC"/>
<path opacity="0.1" d="M418.848 117.57H380.813V201.778H418.848V117.57Z" fill="#00C4CC"/>
<path opacity="0.1" d="M418.854 204.364V287.961H230.062V251.903H330.621V273.174H380.813V204.364H418.854Z" fill="#00C4CC"/>
<path opacity="0.1" d="M419.452 380.175H418.848V435.014C412.037 434.438 405.247 433.655 398.476 432.664C367.995 428.203 338.28 419.535 310.183 406.909C302.07 403.259 294.123 399.275 286.341 394.956C273.342 387.757 260.888 379.616 249.079 370.597C246.113 368.325 243.186 366.001 240.296 363.624C238.295 361.974 236.306 360.282 234.293 358.639C232.897 357.509 231.488 356.397 230.062 355.333V290.547H380.311C380.208 290.161 380.105 289.774 379.997 289.393C380.111 289.774 380.22 290.161 380.323 290.547H418.848V380.139C419.054 380.145 419.253 380.163 419.452 380.175Z" fill="#00C4CC"/>
<path opacity="0.1" d="M518.047 111.298H493.262V103.599H504.373V80.6663C505.336 81.0168 506.295 81.3774 507.251 81.748V103.599H518.047V111.298Z" fill="#00C4CC"/>
<path opacity="0.1" d="M577.76 201.784H456.085C456.085 201.784 456.085 201.784 456.128 201.814L456.073 201.784H433.501V117.576H439.897V179.818H469.125V142.956H493.268V113.884H518.053V142.98H542.197V179.842H577.76V201.784Z" fill="#00C4CC"/>
<path opacity="0.1" d="M433.501 204.364V287.961H577.76V204.364H433.501ZM616.92 386.363L617.119 320.194H577.76V290.584H433.501V435.915C445.328 436.412 457.174 436.27 468.986 435.492H469.191C474.833 435.137 480.449 434.622 486.039 433.945H486.166C515.986 430.476 545.145 422.698 572.73 410.855" fill="#00C4CC"/>
<path opacity="0.1" d="M634.323 290.547H667.976C667.68 307.522 664.27 324.194 656.811 339.591C650.602 352.384 641.976 363.57 631.784 373.341V320.164H634.323V290.547Z" fill="#00C4CC"/>
<path opacity="0.1" d="M667.994 287.961H634.323V218.099H652.543C661.973 240.126 667.964 264.297 667.994 287.961Z" fill="#00C4CC"/>
<path opacity="0.1" d="M418.854 140.98H398.476V167.382H418.854V140.98Z" fill="#00C4CC"/>
<path opacity="0.1" d="M418.854 195.705H398.476V201.784H418.854V195.705Z" fill="#00C4CC"/>
<path opacity="0.1" d="M418.854 204.364H398.476V222.1H418.854V204.364Z" fill="#00C4CC"/>
<path opacity="0.1" d="M418.854 250.429H398.476V276.83H418.854V250.429Z" fill="#00C4CC"/>
<path opacity="0.1" d="M418.854 305.153H398.476V331.554H418.854V305.153Z" fill="#00C4CC"/>
<path opacity="0.1" d="M418.848 380.139C419.054 380.139 419.253 380.139 419.453 380.175H418.848V386.309H398.476V359.877H418.848V380.139Z" fill="#00C4CC"/>
<path opacity="0.1" d="M418.848 414.59V434.984C412.037 434.408 405.247 433.625 398.476 432.634V414.59H418.848Z" fill="#00C4CC"/>
<path opacity="0.1" d="M317.394 286.021H230.062V287.961H317.394V286.021Z" fill="#00C4CC"/>
<path opacity="0.1" d="M317.394 290.541H230.062V297.974H317.394V290.541Z" fill="#00C4CC"/>
<path opacity="0.1" d="M317.394 322.339H230.062V334.292H317.394V322.339Z" fill="#00C4CC"/>
<path opacity="0.1" d="M317.388 358.657V370.61H249.079C246.113 368.345 243.183 366.021 240.29 363.636C238.289 361.986 236.306 360.294 234.287 358.657H317.388Z" fill="#00C4CC"/>
<path opacity="0.1" d="M317.388 394.968V406.909H310.177C302.072 403.255 294.127 399.269 286.341 394.95L317.388 394.968Z" fill="#00C4CC"/>
<path opacity="0.1" d="M486.184 212.468H468.992V229.653H486.184V212.468Z" fill="#00C4CC"/>
<path opacity="0.1" d="M113.943 132.393H96.7507V149.579H113.943V132.393Z" fill="#00C4CC"/>
<path opacity="0.1" d="M113.943 172.313H96.7507V189.499H113.943V172.313Z" fill="#00C4CC"/>
<path opacity="0.1" d="M113.943 212.232H96.7507V229.418H113.943V212.232Z" fill="#00C4CC"/>
<path opacity="0.1" d="M113.943 252.145H96.7507V269.331H113.943V252.145Z" fill="#00C4CC"/>
<path opacity="0.1" d="M113.943 292.064H96.7507V309.25H113.943V292.064Z" fill="#00C4CC"/>
<path opacity="0.1" d="M113.943 331.984H96.7507V349.169H113.943V331.984Z" fill="#00C4CC"/>
<path opacity="0.1" d="M551.815 212.468H534.622V229.653H551.815V212.468Z" fill="#00C4CC"/>
<path opacity="0.1" d="M486.184 254.858H468.992V272.044H486.184V254.858Z" fill="#00C4CC"/>
<path opacity="0.1" d="M551.815 254.858H534.622V272.044H551.815V254.858Z" fill="#00C4CC"/>
<path opacity="0.1" d="M486.184 297.243H468.992V314.429H486.184V297.243Z" fill="#00C4CC"/>
<path opacity="0.1" d="M551.815 297.243H534.622V314.429H551.815V297.243Z" fill="#00C4CC"/>
<path opacity="0.1" d="M486.184 339.634H468.992V356.82H486.184V339.634Z" fill="#00C4CC"/>
<path opacity="0.1" d="M551.815 339.634H534.622V356.82H551.815V339.634Z" fill="#00C4CC"/>
<path opacity="0.1" d="M486.184 382.025H468.992V399.21H486.184V382.025Z" fill="#00C4CC"/>
<path opacity="0.1" d="M551.815 382.025H534.622V399.21H551.815V382.025Z" fill="#00C4CC"/>
<path opacity="0.1" d="M468.992 435.492V424.409H486.178V433.915L468.992 435.492Z" fill="#00C4CC"/>
<path opacity="0.1" d="M10.8811 180.301V190.133H69.7174V180.301H10.8811ZM16.7448 189.517H11.945V180.906H16.7811L16.7448 189.517ZM22.6024 189.517H17.7664V180.906H22.6024V189.517ZM28.448 189.517H23.6119V180.906H28.448V189.517ZM34.3056 189.517H29.4756V180.906H34.3116L34.3056 189.517ZM40.1572 189.517H35.3212V180.906H40.1572V189.517ZM46.0148 189.517H41.1788V180.906H46.0148V189.517ZM51.8725 189.517H47.0364V180.906H51.8725V189.517ZM57.724 189.517H52.888V180.906H57.724V189.517ZM63.5756 189.517H58.7396V180.906H63.5756V189.517ZM69.4272 189.517H64.5912V180.906H69.4272V189.517Z" fill="#00C4CC"/>
<path opacity="0.1" d="M10.8811 208.908V218.74H69.7174V208.908H10.8811ZM16.7448 218.118H11.945V209.531H16.7811L16.7448 218.118ZM22.6024 218.118H17.7664V209.531H22.6024V218.118ZM28.448 218.118H23.6119V209.531H28.448V218.118ZM34.3056 218.118H29.4756V209.531H34.3116L34.3056 218.118ZM40.1572 218.118H35.3212V209.531H40.1572V218.118ZM46.0148 218.118H41.1788V209.531H46.0148V218.118ZM51.8725 218.118H47.0364V209.531H51.8725V218.118ZM57.724 218.118H52.888V209.531H57.724V218.118ZM63.5756 218.118H58.7396V209.531H63.5756V218.118ZM69.4272 218.118H64.5912V209.531H69.4272V218.118Z" fill="#00C4CC"/>
<path opacity="0.1" d="M10.8811 237.527V247.377H69.7174V237.527H10.8811ZM16.7448 246.737H11.945V238.144H16.7811L16.7448 246.737ZM22.6024 246.737H17.7664V238.144H22.6024V246.737ZM28.448 246.737H23.6119V238.144H28.448V246.737ZM34.3056 246.737H29.4756V238.144H34.3116L34.3056 246.737ZM40.1572 246.737H35.3212V238.144H40.1572V246.737ZM46.0148 246.737H41.1788V238.144H46.0148V246.737ZM51.8725 246.737H47.0364V238.144H51.8725V246.737ZM57.724 246.737H52.888V238.144H57.724V246.737ZM63.5756 246.737H58.7396V238.144H63.5756V246.737ZM69.4272 246.737H64.5912V238.144H69.4272V246.737Z" fill="#00C4CC"/>
<path opacity="0.1" d="M10.8811 266.146V275.966H69.7174V266.146H10.8811ZM16.7448 275.356H11.945V266.757H16.7811L16.7448 275.356ZM22.6024 275.356H17.7664V266.757H22.6024V275.356ZM28.448 275.356H23.6119V266.757H28.448V275.356ZM34.3056 275.356H29.4756V266.757H34.3116L34.3056 275.356ZM40.1572 275.356H35.3212V266.757H40.1572V275.356ZM46.0148 275.356H41.1788V266.757H46.0148V275.356ZM51.8725 275.356H47.0364V266.757H51.8725V275.356ZM57.724 275.356H52.888V266.757H57.724V275.356ZM63.5756 275.356H58.7396V266.757H63.5756V275.356ZM69.4272 275.356H64.5912V266.757H69.4272V275.356Z" fill="#00C4CC"/>
<path opacity="0.1" d="M11.135 294.759C11.3708 295.684 11.6367 296.608 11.9148 297.521V295.376H16.7508V303.969H14.1636C14.2422 304.168 14.3207 304.386 14.3993 304.573H69.7174V294.759H11.135ZM22.6206 303.969H17.7845V295.376H22.6206V303.969ZM28.4661 303.969H23.6301V295.376H28.4661V303.969ZM34.3237 303.969H29.4756V295.376H34.3117L34.3237 303.969ZM40.1753 303.969H35.3393V295.376H40.1753V303.969ZM46.033 303.969H41.1969V295.376H46.033V303.969ZM51.8906 303.969H47.0546V295.376H51.8906V303.969ZM57.7422 303.969H52.9062V295.376H57.7422V303.969ZM63.5938 303.969H58.7578V295.376H63.5938V303.969ZM69.4454 303.969H64.6093V295.376H69.4454V303.969Z" fill="#00C4CC"/>
<path opacity="0.1" d="M24.7966 323.378C24.9478 323.572 25.0928 323.789 25.25 323.983H28.4478V328.11C28.7924 328.521 29.1309 328.932 29.4815 329.319V323.959H34.3176V332.582H32.359C32.5524 332.781 32.7398 332.993 32.9635 333.186H69.7354V323.378H24.7966ZM40.157 332.582H35.321V323.995H40.157V332.582ZM46.0147 332.582H41.1787V323.995H46.0147V332.582ZM51.8723 332.582H47.0363V323.995H51.8723V332.582ZM57.7239 332.582H52.8879V323.995H57.7239V332.582ZM63.5755 332.582H58.7395V323.995H63.5755V332.582ZM69.4271 332.582H64.5911V323.995H69.4271V332.582Z" fill="#00C4CC"/>
<path opacity="0.1" d="M57.071 351.991C57.6211 352.306 58.1833 352.596 58.7516 352.91V352.608H63.5876V355.327L64.6152 355.805V352.608H69.4513V357.835C69.544 357.881 69.6412 357.917 69.7414 357.944V351.991H57.071Z" fill="#00C4CC"/>
<path opacity="0.1" d="M456.085 201.784H456.122H456.085ZM418.848 380.133H419.452H418.848ZM379.997 289.387C380.111 289.774 380.208 290.161 380.317 290.541C380.22 290.161 380.117 289.774 379.997 289.387ZM456.085 201.766H456.122H456.085ZM90.9656 111.28V113.86H117.969V111.28H90.9656ZM418.848 380.133H419.452H418.848ZM379.997 289.387C380.111 289.774 380.208 290.161 380.317 290.541C380.22 290.161 380.117 289.774 379.997 289.387ZM456.085 201.766H456.122H456.085ZM418.848 380.115H419.452H418.848ZM379.997 289.387C380.111 289.774 380.208 290.161 380.317 290.541C380.22 290.161 380.117 289.774 379.997 289.387Z" fill="#00C4CC"/>
<path d="M279.039 229.43C279.039 229.43 276.657 229.097 276.657 225.629C276.657 222.16 274.952 215.682 274.952 215.682C274.952 215.652 273.477 204.4 271.44 202.612C269.403 200.823 266.785 190.32 266.785 190.32C266.785 190.32 266.338 184.622 265.425 183.395C264.512 182.169 263.279 179.165 261.46 174.881C259.64 170.596 252.054 167.629 252.054 167.629C252.054 167.629 238.337 159.677 234.45 157.085C234.097 156.872 233.767 156.622 233.465 156.341C232.788 155.453 229.838 155.435 229.838 155.435C229.53 153.489 229.234 151.253 229.137 149.229C229.137 149.011 229.137 148.794 229.107 148.576C233.441 146.015 236.706 141.977 238.301 137.203C238.374 136.974 238.434 136.732 238.501 136.502C238.76 136.417 238.999 136.278 239.202 136.095C239.405 135.912 239.568 135.688 239.679 135.439C240.03 134.659 240.036 133.747 240.471 133.022C240.979 132.164 241.946 131.704 242.708 131.058C244.63 129.426 245.126 126.677 245.035 124.175C244.975 122.151 244.648 120.108 244.775 118.096L244.812 117.588C244.848 117.286 244.89 116.984 244.945 116.694C245.241 115.195 245.888 113.781 246.25 112.295C246.613 110.808 246.649 109.134 245.803 107.853C244.564 105.974 241.983 105.599 239.716 105.406C237.147 105.188 234.849 105.472 233.205 103.339C232.436 102.224 231.57 101.179 230.618 100.215C230.279 99.9008 226.991 97.8946 226.991 97.7616C223.781 96.2756 220.143 95.9967 216.745 96.976C215.04 97.4716 213.432 98.2813 211.703 98.6862C207.973 99.5684 203.681 98.6137 200.514 100.747C198.749 101.955 197.691 103.877 196.699 105.75C195.893 107.293 195.075 108.834 194.245 110.373C192.909 112.905 191.549 115.479 190.987 118.283C190.868 118.893 190.796 119.511 190.769 120.132V120.163C190.769 120.386 190.769 120.61 190.769 120.833V121.117C190.769 121.329 190.769 121.534 190.805 121.722C190.842 121.909 190.836 121.969 190.854 122.096C190.872 122.223 190.902 122.507 190.938 122.701C190.975 122.894 191.047 123.232 191.12 123.498C191.15 123.613 191.192 123.722 191.228 123.831C191.289 124.036 191.361 124.235 191.44 124.435C191.482 124.538 191.525 124.646 191.573 124.749C191.664 124.961 191.773 125.166 191.881 125.353C191.93 125.438 191.966 125.517 192.014 125.595C192.183 125.876 192.369 126.147 192.57 126.405C193.864 128.018 195.768 129.046 197.177 130.556C197.177 130.617 197.177 130.677 197.177 130.732C197.177 130.901 197.177 131.064 197.177 131.233C197.252 134.602 198.149 137.902 199.79 140.846C201.431 143.789 203.768 146.288 206.595 148.123C206.595 148.353 206.625 148.588 206.637 148.818C206.755 150.612 206.733 152.412 206.571 154.202C206.325 153.912 206.016 153.681 205.669 153.527C205.322 153.372 204.944 153.297 204.564 153.308C204.304 153.295 204.044 153.317 203.79 153.374L203.736 153.332V153.386C202.406 153.713 200.768 155.096 199.202 159.03C199.202 159.03 194.438 164.396 190.811 164.173C187.184 163.949 178.002 169.756 178.002 169.756C178.002 169.756 169.043 175.57 167.121 181.492C166.046 184.85 164.758 188.136 163.264 191.33L152.19 214.141L150.146 232.24C150.146 232.24 151.277 240.289 151.053 241.516C150.83 242.742 155.702 253.807 155.702 253.807C155.702 253.807 171.8 282.081 178.377 283.532L178.848 283.199C179.13 283.346 179.428 283.458 179.737 283.532L181.091 282.577C181.172 283.641 181.138 284.711 180.988 285.768C180.081 288.559 181.327 306.779 182.911 310.35C184.494 313.921 183.932 360.748 183.932 360.748L183.708 364.881C183.708 364.881 183.708 365.014 183.763 365.243L183.708 366.222L183.872 366.307C184.041 367.618 183.986 368.948 183.708 370.241C183.14 372.054 182.911 377.178 182.911 377.178C182.911 377.178 178.383 406.111 180.529 411.925C182.675 417.738 184.5 424.107 184.5 424.107C184.5 424.107 186.767 431.359 184.609 432.597C182.451 433.836 176.315 435.915 177.579 438.936C178.727 441.728 183.086 449.209 183.733 450.303L183.678 450.877L182.79 460.503C182.934 461.774 183.278 463.015 183.811 464.177C184.785 466.274 186.677 468.45 190.273 468.214C190.878 468.172 191.579 468.099 192.256 468.009C198.839 467.126 206.946 464.19 206.946 464.19C206.525 463.922 206.139 463.604 205.797 463.241C205.473 462.927 205.217 462.552 205.044 462.136C204.87 461.72 204.783 461.274 204.788 460.824C204.884 459.071 201.602 450.72 200.786 448.665C200.659 448.369 200.592 448.2 200.592 448.2C200.592 448.2 208.076 440.381 206.831 433.449C206.831 433.449 198.549 428.615 201.275 425.962C204.002 423.309 208.874 415.689 208.874 415.689C208.874 415.689 209.098 387.197 208.874 382.943C208.641 379.99 208.781 377.02 209.291 374.102C209.382 373.661 209.491 373.232 209.605 372.809C213.376 373.372 217.182 373.661 220.994 373.673C222.385 373.673 223.799 373.673 225.226 373.589C225.226 373.992 225.244 374.427 225.28 374.894C225.594 381.952 226.181 394.328 226.658 398.926C227.335 405.519 231.077 423.285 231.077 423.285C231.077 423.285 223.938 427.866 232.323 439.154C232.323 439.154 232.323 443.245 231.766 443.837C231.173 445.773 230.694 447.742 230.334 449.735C229.983 451.862 229.838 454.013 230.406 455.131C231.766 457.802 239.927 457.585 239.927 457.585L240.127 457.548C241.667 457.389 243.224 457.537 244.707 457.985C246.19 458.432 247.569 459.169 248.765 460.153C251.866 462.643 263.636 461.549 270.007 460.757C272.504 460.443 274.172 460.153 274.172 460.153C274.253 459.87 274.282 459.576 274.257 459.283C274.19 457.718 272.963 454.285 264.645 451.222C264.645 451.222 256.823 445.964 256.932 441.384H256.769H255.862C256.521 441.347 256.944 441.384 256.944 441.384C256.944 441.384 253.879 430.204 255.131 429.298C256.382 428.392 252.634 416.004 252.634 416.004C252.634 416.004 250.488 395.216 250.373 393.76C250.378 392.51 250.567 391.268 250.935 390.074L250.373 378.677C250.373 378.677 250.264 374.888 250.373 373.655C250.355 372.585 250.268 371.517 250.113 370.458C250.059 370.035 250.004 369.594 249.944 369.159C252.876 368.416 254.78 367.727 254.78 367.727L254.441 328.056C256.932 323.221 257.391 312.616 257.379 305.093C257.379 300.258 257.162 296.681 257.162 296.681L260.565 291.128C260.565 291.128 261.351 284.48 260.106 283.024C259.555 282.365 259.803 281.683 260.257 281.121C260.492 280.934 260.741 280.764 261 280.613C261 280.613 260.964 280.559 260.922 280.48C261.159 280.282 261.412 280.102 261.677 279.942C261.677 279.942 260.468 278.069 261.55 277.277C262.566 277.966 263.473 278.486 264.162 278.909C264.113 279.35 264.065 279.604 264.065 279.604L264.355 279C265.02 279.374 265.425 279.604 265.425 279.604C265.425 279.604 270.757 268.987 270.642 267.421C270.527 265.856 274.269 259.264 274.269 259.264C274.269 259.264 274.722 255.801 276.766 254.351C278.809 252.9 278.349 242.392 278.349 242.392C278.349 242.392 278.918 236.917 280.278 234.681C281.638 232.445 279.039 229.43 279.039 229.43ZM177.023 224.771L177.125 227.303C176.521 226.33 176.086 225.629 176.086 225.629L177.023 224.771Z" fill="url(#paint0_linear)"/>
<path d="M265.715 275.017L264.41 280.577C264.41 280.577 253.952 275.241 252.066 268.461C250.18 261.681 255.221 259.106 255.221 259.106L264.966 263.234L265.715 275.017Z" fill="white"/>
<path opacity="0.1" d="M265.715 275.017L264.41 280.577C264.41 280.577 253.952 275.241 252.066 268.461C250.18 261.681 255.221 259.106 255.221 259.106L264.966 263.234L265.715 275.017Z" fill="black"/>
<path d="M207.024 464.226C207.024 464.226 197.352 467.779 190.703 468.226C187.172 468.462 185.316 466.298 184.361 464.214C183.84 463.055 183.503 461.821 183.364 460.558L184.228 450.98L184.688 445.88L198.815 442.212L200.816 448.327L201.003 448.792C201.807 450.835 205.029 459.144 204.933 460.878C204.929 461.322 205.014 461.762 205.185 462.173C205.355 462.583 205.607 462.954 205.924 463.265C206.248 463.631 206.618 463.954 207.024 464.226Z" fill="white"/>
<path d="M273.09 459.355C273.115 459.646 273.086 459.939 273.006 460.219C273.006 460.219 252.32 463.67 248.088 460.219C246.895 459.211 245.504 458.464 244.005 458.025C242.506 457.585 240.932 457.464 239.383 457.669C239.383 457.669 231.38 457.887 230.044 455.252C229.488 454.146 229.633 452.001 229.977 449.886C230.329 447.904 230.797 445.945 231.38 444.018L231.7 443.765L233.604 442.236L255.898 441.577H256.068C255.959 446.133 263.636 451.36 263.636 451.36C271.791 454.382 272.994 457.796 273.09 459.355Z" fill="white"/>
<path opacity="0.1" d="M273.09 459.355C273.111 459.646 273.081 459.939 273 460.219C273 460.219 252.32 463.67 248.088 460.219C246.896 459.212 245.506 458.465 244.008 458.026C242.51 457.587 240.937 457.465 239.389 457.669C239.389 457.669 231.38 457.887 230.05 455.252C229.494 454.14 229.633 452.001 229.977 449.886C233.06 450.194 237.926 450.962 239.837 452.793C242.726 455.578 247.623 458.358 250.627 458.576C252.978 458.727 267.045 459.174 273.09 459.355Z" fill="black"/>
<path opacity="0.1" d="M207.024 464.226C207.024 464.226 197.352 467.779 190.703 468.226C187.172 468.462 185.317 466.298 184.367 464.208C186.828 465.036 190.243 465.906 192.039 465.108C194.166 464.165 201.711 463.555 205.942 463.295C206.264 463.648 206.627 463.96 207.024 464.226Z" fill="black"/>
<path d="M221.375 177.884C213.396 174.784 203.131 164.541 205.694 159.755C206.264 158.548 206.602 157.244 206.692 155.912C206.857 154.104 206.881 152.286 206.764 150.474C206.585 147.506 206.227 144.552 205.694 141.627C205.694 141.627 230.606 142.189 229.155 145.857C228.732 146.932 228.665 148.8 228.78 150.891C228.895 152.981 229.197 155.344 229.512 157.344C229.947 160.088 230.382 162.179 230.382 162.179C230.382 162.179 228.859 164.312 227.964 164.427C227.069 164.541 232.824 182.301 221.375 177.884Z" fill="#CF6F80"/>
<path opacity="0.1" d="M200.985 448.792L200.798 448.998C193.35 439.994 184.343 451.215 184.343 451.215L184.21 450.98L184.67 445.88L198.797 442.212L200.798 448.327L200.985 448.792Z" fill="black"/>
<path opacity="0.1" d="M256.074 442.212C256.074 442.212 250.633 442.097 247.731 444.659C244.83 447.221 230.805 445.215 231.41 444.659C231.589 444.383 231.697 444.068 231.724 443.74L233.628 442.212L255.922 441.553C256.007 441.958 256.074 442.212 256.074 442.212Z" fill="black"/>
<path d="M210.252 371.504C209.847 372.505 209.539 373.543 209.333 374.604C208.829 377.508 208.689 380.464 208.916 383.402C209.14 387.632 208.916 415.979 208.916 415.979C208.916 415.979 204.135 423.539 201.469 426.204C198.803 428.869 206.909 433.655 206.909 433.655C208.118 440.544 200.792 448.327 200.792 448.327C193.344 439.323 184.337 450.551 184.337 450.551C184.337 450.551 179.441 442.091 178.22 439.069C176.999 436.048 183.001 433.957 185.111 432.73C187.221 431.504 185.008 424.27 185.008 424.27C185.008 424.27 183.225 417.931 181.109 412.148C178.993 406.365 183.443 377.577 183.443 377.577C183.443 377.577 183.672 372.465 184.222 370.682C184.5 369.396 184.555 368.071 184.386 366.766C184.349 366.325 184.307 365.957 184.277 365.709C184.247 365.461 184.222 365.346 184.222 365.346L184.307 365.201L187.33 359.569C187.33 359.569 211.703 367.957 210.252 371.504Z" fill="#00C4CC"/>
<path d="M256.073 441.547C256.073 441.547 250.633 441.432 247.731 443.964C244.83 446.496 230.805 444.52 231.41 443.964C232.014 443.408 231.966 439.293 231.966 439.293C223.739 428.065 230.757 423.509 230.757 423.509C230.757 423.509 227.082 405.833 226.417 399.277C225.951 394.696 225.377 382.387 225.069 375.359C224.936 372.338 224.857 370.259 224.857 370.259L231.579 368.905L232.443 368.73L248.656 365.479C248.656 365.479 249.104 368.501 249.406 370.972C249.556 372.027 249.641 373.091 249.66 374.157C249.551 375.365 249.66 379.148 249.66 379.148L250.21 390.491C249.85 391.68 249.665 392.916 249.66 394.159C249.768 395.603 251.878 416.282 251.878 416.282C251.878 416.282 255.548 428.621 254.296 429.509C253.045 430.398 256.073 441.547 256.073 441.547Z" fill="#00C4CC"/>
<path opacity="0.1" d="M229.155 145.857C228.732 146.932 228.665 148.8 228.78 150.891C225.443 152.899 221.607 153.926 217.713 153.853C213.819 153.781 210.024 152.611 206.764 150.48C206.585 147.51 206.227 144.554 205.694 141.627C205.694 141.627 230.606 142.177 229.155 145.857Z" fill="black"/>
<path d="M238.785 132.502C238.79 134.68 238.447 136.844 237.769 138.914C236.255 143.551 233.149 147.503 229.001 150.073C224.853 152.642 219.93 153.663 215.102 152.955C210.274 152.247 205.852 149.856 202.617 146.204C199.382 142.552 197.543 137.874 197.425 132.998C197.425 132.828 197.425 132.671 197.425 132.502C197.378 129.757 197.878 127.03 198.896 124.481C199.915 121.931 201.431 119.61 203.356 117.652C205.281 115.694 207.577 114.139 210.11 113.078C212.643 112.017 215.361 111.47 218.108 111.47C220.854 111.47 223.573 112.017 226.106 113.078C228.638 114.139 230.934 115.694 232.859 117.652C234.785 119.61 236.301 121.931 237.319 124.481C238.337 127.03 238.838 129.757 238.791 132.502H238.785Z" fill="#CF6F80"/>
<path opacity="0.1" d="M221.375 177.884C213.396 174.784 203.131 164.541 205.694 159.755C206.264 158.548 206.602 157.244 206.692 155.912L217.615 164.886L224.373 170.427L229.512 157.35C229.947 160.094 230.382 162.185 230.382 162.185C230.382 162.185 228.859 164.318 227.964 164.433C227.069 164.547 232.824 182.301 221.375 177.884Z" fill="black"/>
<path d="M249.623 217.544L240.502 370.73L228.605 371.51L197.799 282.686L202.853 177.231L203.917 154.951L217.615 166.197L224.379 171.739L229.669 158.281L239.504 166.85L249.623 217.544Z" fill="#00C4CC"/>
<path opacity="0.1" d="M210.252 371.504C209.847 372.505 209.539 373.543 209.333 374.604C200.677 373.268 192.27 370.642 184.392 366.815L184.228 366.73L184.283 365.757L184.313 365.25L187.336 359.618C187.336 359.618 211.703 367.957 210.252 371.504Z" fill="black"/>
<path opacity="0.1" d="M231.718 374.628C229.505 375.004 227.273 375.258 225.032 375.389C224.899 372.368 224.821 370.289 224.821 370.289L231.543 368.936L231.718 374.628Z" fill="black"/>
<path opacity="0.1" d="M249.37 371.002C245.072 372.12 238.434 373.377 232.492 372.592L232.407 368.76L248.62 365.509C248.62 365.509 249.067 368.501 249.37 371.002Z" fill="black"/>
<path opacity="0.1" d="M232.383 373.293C207.598 377.523 184.899 365.395 184.899 365.395L185.117 361.285C185.117 361.285 185.679 314.701 184.12 311.13C182.56 307.558 181.345 289.448 182.227 286.668C183.11 283.888 179.005 242.204 179.005 242.204L178.34 225.284L154.003 215.429L164.884 192.756C166.354 189.577 167.618 186.307 168.668 182.966C170.561 177.08 179.344 171.297 179.344 171.297C179.344 171.297 188.351 165.52 191.912 165.738C195.472 165.955 200.139 160.626 200.139 160.626C203.585 151.845 206.704 155.822 206.704 155.822C206.704 156.239 206.704 155.822 206.534 157.121C205.325 166.759 226.084 197.215 226.38 197.753L228.357 245.891L230.358 306.809L232.383 373.293Z" fill="black"/>
<path d="M231.718 373.293C206.933 377.523 184.228 365.395 184.228 365.395L184.452 361.285C184.452 361.285 185.014 314.701 183.448 311.13C181.883 307.558 180.674 289.448 181.562 286.668C182.451 283.888 178.34 242.204 178.34 242.204L177.669 225.284L153.32 215.392L164.201 192.719C165.668 189.539 166.932 186.27 167.985 182.93C169.871 177.044 178.661 171.261 178.661 171.261C178.661 171.261 187.668 165.484 191.222 165.702C194.777 165.919 199.45 160.589 199.45 160.589C202.901 151.809 206.704 155.785 206.704 155.785C206.704 156.202 206.341 156.39 206.534 157.085C209.194 166.433 225.419 197.179 225.715 197.717L227.716 245.854L229.717 306.773L231.718 373.293Z" fill="white"/>
<path opacity="0.1" d="M225.038 199.089C222.373 197.977 208.251 181.86 208.251 181.86V178.192C207.738 176.984 204.685 177.721 202.206 178.567L203.27 156.287L204.479 157.29C207.127 166.632 224.73 198.551 225.038 199.089Z" fill="black"/>
<path d="M225.709 197.753C223.037 196.641 208.916 180.525 208.916 180.525V176.857C208.402 175.648 205.35 176.386 202.871 177.232L203.941 154.951L205.15 155.955C207.804 165.297 225.413 197.221 225.709 197.753Z" fill="white"/>
<path opacity="0.1" d="M184.899 278.129C185.232 278.129 202.134 276.353 202.134 276.353C202.134 276.353 212.368 296.47 211.697 301.364C211.026 306.259 209.811 310.592 205.694 309.824C201.578 309.057 183.539 310.429 183.539 310.429L184.899 278.129Z" fill="black"/>
<path d="M184.228 276.794C184.561 276.794 201.463 275.017 201.463 275.017C201.463 275.017 211.691 295.14 211.026 300.029C210.361 304.917 209.134 309.256 205.023 308.489C200.913 307.721 182.868 309.093 182.868 309.093L184.228 276.794Z" fill="white"/>
<path d="M196.965 267.349C196.965 267.349 212.477 275.682 212.809 278.226C213.142 280.77 204.914 277.114 203.137 276.673C201.967 276.391 200.777 276.205 199.577 276.117L187.722 276.437L196.965 267.349Z" fill="#CF6F80"/>
<path opacity="0.1" d="M220.71 200.128C221.611 200.128 222.342 199.397 222.342 198.496C222.342 197.595 221.611 196.865 220.71 196.865C219.809 196.865 219.078 197.595 219.078 198.496C219.078 199.397 219.809 200.128 220.71 200.128Z" fill="black"/>
<path d="M220.71 199.463C221.611 199.463 222.342 198.733 222.342 197.832C222.342 196.931 221.611 196.2 220.71 196.2C219.809 196.2 219.078 196.931 219.078 197.832C219.078 198.733 219.809 199.463 220.71 199.463Z" fill="#3F3D56"/>
<path opacity="0.1" d="M223.714 270.757C224.616 270.757 225.347 270.027 225.347 269.125C225.347 268.224 224.616 267.494 223.714 267.494C222.813 267.494 222.082 268.224 222.082 269.125C222.082 270.027 222.813 270.757 223.714 270.757Z" fill="black"/>
<path d="M223.714 270.086C224.616 270.086 225.347 269.356 225.347 268.455C225.347 267.554 224.616 266.823 223.714 266.823C222.813 266.823 222.082 267.554 222.082 268.455C222.082 269.356 222.813 270.086 223.714 270.086Z" fill="#3F3D56"/>
<path opacity="0.1" d="M222.336 235.442C223.238 235.442 223.968 234.712 223.968 233.811C223.968 232.91 223.238 232.179 222.336 232.179C221.435 232.179 220.704 232.91 220.704 233.811C220.704 234.712 221.435 235.442 222.336 235.442Z" fill="black"/>
<path d="M222.336 234.778C223.238 234.778 223.968 234.047 223.968 233.146C223.968 232.245 223.238 231.515 222.336 231.515C221.435 231.515 220.704 232.245 220.704 233.146C220.704 234.047 221.435 234.778 222.336 234.778Z" fill="#3F3D56"/>
<path d="M259.96 275.779C259.96 275.779 261.073 277.446 259.96 278.226C258.848 279.006 260.069 280.891 260.069 280.891C260.069 280.891 257.295 282.516 258.516 283.979C259.737 285.441 258.963 292.046 258.963 292.046L255.626 297.569C255.626 297.569 255.826 301.129 255.838 305.939C255.838 313.444 255.396 323.995 252.954 328.805L253.293 368.271C253.293 368.271 241.608 372.537 231.827 371.238L230.376 307.909C230.376 307.909 232.492 271.996 233.272 265.107C233.728 261.531 233.914 257.925 233.828 254.32C233.828 254.32 233.495 243.54 232.377 238.536C232.377 238.536 231.168 216.861 231.047 210.86C230.993 207.99 231.144 199.614 231.313 191.65C231.5 182.942 231.712 174.73 231.712 174.73L229.506 157.278C229.506 157.278 231.712 157.054 232.377 157.943C232.675 158.221 232.999 158.47 233.344 158.686C237.153 161.26 250.609 169.176 250.609 169.176C250.609 169.176 258.056 172.137 259.84 176.379C261.623 180.622 262.862 183.631 263.727 184.839C264.591 186.048 265.062 191.728 265.062 191.728C265.062 191.728 267.626 202.182 269.626 203.953C271.627 205.724 273.09 216.988 273.09 216.988L255.409 230.886C255.409 230.886 253.855 254.006 253.523 254.901C253.19 255.795 259.96 275.779 259.96 275.779Z" fill="white"/>
<path d="M260.631 275.779C260.631 275.779 261.738 277.447 260.631 278.226C259.525 279.006 260.734 280.891 260.734 280.891C260.734 280.891 257.978 282.535 259.187 283.997C260.396 285.459 259.634 292.064 259.634 292.064L256.297 297.587C256.297 297.587 256.497 301.147 256.515 305.957C256.515 313.462 256.074 324.013 253.631 328.823L253.964 368.289C253.964 368.289 242.261 372.555 232.492 371.256L231.047 307.927C231.047 307.927 233.163 272.014 233.943 265.125C234.399 261.549 234.583 257.943 234.493 254.339C234.493 254.339 234.16 243.558 233.048 238.555C233.048 238.555 231.839 216.879 231.712 210.878C231.658 208.008 231.815 199.632 231.978 191.668C232.165 182.96 232.377 174.748 232.377 174.748L229.463 157.06C229.463 157.06 232.377 157.06 233.048 157.961C233.343 158.242 233.667 158.491 234.015 158.704C237.824 161.278 251.286 169.194 251.286 169.194C251.286 169.194 258.727 172.155 260.511 176.398C262.294 180.64 263.533 183.649 264.404 184.858C265.274 186.066 265.733 191.746 265.733 191.746C265.733 191.746 268.297 202.201 270.297 203.971C272.298 205.742 273.743 216.982 273.743 216.982L256.061 230.88C256.061 230.88 254.508 254 254.169 254.895C253.831 255.789 260.631 275.779 260.631 275.779Z" fill="white"/>
<path opacity="0.1" d="M239.456 179.878L241.052 184.531L232.649 192.991C232.836 184.29 233.048 176.071 233.048 176.071L230.134 158.384C230.134 158.384 233.048 158.384 233.719 159.284C234.013 159.565 234.338 159.812 234.686 160.021L241.831 180.628L239.456 179.878Z" fill="black"/>
<path d="M238.785 178.543L240.387 183.196L231.984 191.656C232.171 182.948 232.383 174.736 232.383 174.736L229.463 157.048C229.463 157.048 232.383 157.048 233.048 157.949C233.344 158.228 233.669 158.477 234.015 158.692L241.166 179.292L238.785 178.543Z" fill="white"/>
<path opacity="0.1" d="M238.785 132.502C238.79 134.68 238.447 136.844 237.769 138.914C237.655 138.931 237.538 138.926 237.426 138.898C237.314 138.87 237.209 138.82 237.116 138.75C236.959 133.312 234.281 128.206 230.987 123.861C230.062 122.549 228.94 121.387 227.662 120.416C226.369 119.446 224.762 118.991 223.152 119.141C221.339 119.389 219.737 120.622 217.905 120.779C215.487 120.978 213.323 119.304 210.923 119.22C209.948 119.229 208.985 119.446 208.1 119.857C207.215 120.267 206.428 120.862 205.791 121.601C204.53 123.092 203.594 124.829 203.04 126.701C202.09 129.54 201.572 132.506 201.505 135.499C201.475 137.191 201.312 139.312 199.74 139.929C199.858 138.684 199.717 137.429 199.324 136.242C198.932 135.055 198.298 133.963 197.461 133.034L197.425 132.998C197.425 132.828 197.425 132.671 197.425 132.502C197.378 129.757 197.878 127.03 198.896 124.481C199.915 121.931 201.431 119.61 203.356 117.652C205.281 115.694 207.577 114.139 210.11 113.078C212.643 112.017 215.361 111.47 218.108 111.47C220.854 111.47 223.573 112.017 226.106 113.078C228.638 114.139 230.934 115.694 232.859 117.652C234.785 119.61 236.301 121.931 237.319 124.481C238.337 127.03 238.838 129.757 238.791 132.502H238.785Z" fill="black"/>
<path d="M226.67 99.6712C223.529 98.1941 219.956 97.9147 216.624 98.8856C214.949 99.3811 213.371 100.185 211.673 100.59C208.046 101.466 203.814 100.517 200.701 102.638C198.972 103.847 197.932 105.756 196.965 107.612L194.547 112.216C193.229 114.736 191.899 117.298 191.349 120.072C190.799 122.846 191.132 125.952 192.891 128.181C194.172 129.807 196.065 130.828 197.455 132.357C198.288 133.287 198.92 134.379 199.311 135.564C199.702 136.75 199.844 138.003 199.728 139.246C201.306 138.642 201.457 136.515 201.493 134.823C201.56 131.829 202.078 128.863 203.028 126.024C203.58 124.151 204.517 122.414 205.779 120.924C206.416 120.186 207.204 119.592 208.089 119.181C208.973 118.771 209.936 118.553 210.911 118.543C213.329 118.628 215.499 120.295 217.893 120.096C219.707 119.945 221.315 118.706 223.14 118.464C224.75 118.312 226.358 118.767 227.65 119.74C228.928 120.709 230.047 121.871 230.969 123.184C234.269 127.529 236.947 132.623 237.104 138.074C237.787 138.575 238.773 137.923 239.111 137.149C239.45 136.376 239.462 135.469 239.891 134.732C240.387 133.88 241.336 133.427 242.079 132.786C243.965 131.161 244.437 128.423 244.364 125.94C244.292 123.456 243.808 120.936 244.28 118.495C244.564 116.996 245.205 115.594 245.555 114.114C245.906 112.633 245.948 110.971 245.12 109.696C243.911 107.823 241.366 107.454 239.147 107.279C236.627 107.062 234.372 107.34 232.764 105.219C232.009 104.112 231.16 103.072 230.225 102.112C229.905 101.798 226.67 99.8041 226.67 99.6712Z" fill="#512E4E"/>
<path opacity="0.1" d="M160.967 227.103L154.65 215.428L152.649 233.442C152.649 233.442 153.761 241.443 153.538 242.67C153.314 243.896 158.096 254.894 158.096 254.894C158.096 254.894 173.891 283.018 180.341 284.468L202.134 268.902L196.355 261.566C196.355 261.566 194.354 260.786 193.852 261.566C193.852 261.566 183.122 243.111 182.01 241.775C180.897 240.44 181.115 237.775 181.115 237.775C181.115 237.775 179.447 235.998 180.003 234.331C180.559 232.663 176.781 226.88 176.781 226.88L180.226 223.659L160.967 227.103Z" fill="black"/>
<path d="M154.982 214.099L153.314 215.429L151.313 233.442C151.313 233.442 152.425 241.443 152.202 242.67C151.978 243.896 156.766 254.895 156.766 254.895C156.766 254.895 172.555 283.018 179.005 284.468L200.804 268.902L195.019 261.566C195.019 261.566 193.018 260.786 192.516 261.566C192.516 261.566 181.786 243.111 180.674 241.775C179.562 240.44 179.785 237.775 179.785 237.775C179.785 237.775 178.117 235.998 178.673 234.331C179.229 232.663 175.445 226.88 175.445 226.88L178.891 223.659L154.982 214.099Z" fill="white"/>
<path opacity="0.1" d="M258.516 284.668C259.725 286.136 258.963 292.729 258.963 292.729L255.626 298.252C255.626 298.252 255.826 301.817 255.838 306.622L250.228 308.374C249.721 308.532 249.183 308.567 248.66 308.475C248.137 308.384 247.643 308.169 247.22 307.847C246.798 307.526 246.458 307.109 246.229 306.63C246 306.15 245.889 305.623 245.906 305.093L246.873 273.905L259.96 278.909C258.848 279.682 260.069 281.58 260.069 281.58C260.069 281.58 257.295 283.199 258.516 284.668Z" fill="black"/>
<path d="M259.187 283.997C260.396 285.465 259.634 292.064 259.634 292.064L256.297 297.587C256.297 297.587 256.497 301.147 256.515 305.957L250.802 307.739C250.306 307.894 249.78 307.927 249.267 307.837C248.755 307.747 248.272 307.536 247.858 307.221C247.444 306.907 247.112 306.498 246.888 306.029C246.664 305.56 246.555 305.044 246.571 304.525L247.544 273.241L260.637 278.244C259.519 279.018 260.74 280.909 260.74 280.909C260.74 280.909 257.978 282.535 259.187 283.997Z" fill="white"/>
<path d="M263.521 269.132C263.521 269.132 262.632 274.806 260.408 275.138C258.183 275.471 257.186 284.317 254.967 284.003C252.749 283.689 254.218 275.779 254.296 274.244C254.375 272.709 251.878 266.352 253.746 264.908C255.614 263.463 261.526 264.908 261.526 264.908L263.521 269.132Z" fill="#CF6F80"/>
<path opacity="0.1" d="M268.254 225.435L272.45 216.975C272.45 216.975 274.118 223.423 274.118 226.868C274.118 230.312 276.451 230.65 276.451 230.65C276.451 230.65 279.008 233.672 277.66 235.872C276.312 238.071 275.768 243.546 275.768 243.546C275.768 243.546 276.21 253.994 274.209 255.438C272.208 256.883 271.791 260.333 271.791 260.333C271.791 260.333 268.115 266.89 268.23 268.449C268.345 270.008 263.116 280.565 263.116 280.565C263.116 280.565 265.673 267.446 250.772 261.777C250.772 261.777 250.657 257.324 251.769 256.103C252.882 254.882 254.617 254.326 253.529 248.157C252.44 241.987 253.214 234.615 253.214 233.134C253.214 231.654 256.551 222.42 256.551 222.42L268.254 225.435Z" fill="black"/>
<path d="M270.068 215.767L273.731 216.975C273.731 216.975 275.405 223.423 275.405 226.868C275.405 230.312 277.739 230.651 277.739 230.651C277.739 230.651 280.296 233.672 278.948 235.872C277.6 238.071 277.062 243.546 277.062 243.546C277.062 243.546 277.503 253.994 275.502 255.438C273.501 256.883 273.054 260.333 273.054 260.333C273.054 260.333 269.385 266.89 269.499 268.449C269.614 270.008 264.379 280.565 264.379 280.565C264.379 280.565 266.942 267.446 252.035 261.777C252.035 261.777 251.927 257.324 253.039 256.103C254.151 254.882 255.886 254.326 254.798 248.157C253.71 241.987 254.484 234.615 254.484 233.134C254.484 231.654 257.82 222.42 257.82 222.42L270.068 215.767Z" fill="white"/>
<path opacity="0.1" d="M189.155 435.045C189.155 435.045 194.995 431.377 198.827 434.042C202.66 436.707 189.155 435.045 189.155 435.045Z" fill="black"/>
<path opacity="0.1" d="M234.529 423.702C234.529 423.702 239.698 423.037 244.038 427.709C248.378 432.38 234.529 423.702 234.529 423.702Z" fill="black"/>
<g opacity="0.1">
<path opacity="0.1" d="M242.091 131.463C241.348 132.103 240.393 132.563 239.897 133.415C239.474 134.146 239.462 135.046 239.123 135.832C238.785 136.617 237.799 137.258 237.116 136.762C236.959 131.324 234.275 126.218 230.981 121.867C230.059 120.554 228.94 119.392 227.662 118.422C226.368 117.45 224.758 116.995 223.146 117.147C221.333 117.395 219.737 118.628 217.905 118.779C215.487 118.984 213.317 117.31 210.917 117.226C209.942 117.235 208.98 117.453 208.096 117.865C207.212 118.277 206.426 118.873 205.791 119.613C204.529 121.101 203.592 122.836 203.04 124.707C202.091 127.546 201.573 130.512 201.505 133.505C201.469 135.191 201.312 137.294 199.752 137.923C199.788 138.369 199.788 138.818 199.752 139.264C201.324 138.66 201.481 136.533 201.517 134.841C201.584 131.848 202.102 128.881 203.053 126.042C203.604 124.169 204.541 122.432 205.803 120.942C206.439 120.204 207.226 119.61 208.109 119.199C208.993 118.789 209.955 118.571 210.929 118.561C213.347 118.646 215.523 120.314 217.917 120.114C219.731 119.963 221.339 118.724 223.158 118.483C224.77 118.331 226.38 118.785 227.674 119.758C228.952 120.727 230.072 121.889 230.993 123.202C234.287 127.547 236.971 132.641 237.128 138.092C237.811 138.593 238.797 137.941 239.135 137.167C239.474 136.394 239.486 135.487 239.909 134.75C240.405 133.898 241.36 133.445 242.103 132.804C243.989 131.179 244.461 128.441 244.388 125.958C244.388 125.879 244.388 125.801 244.388 125.728C244.274 127.879 243.699 130.073 242.091 131.463Z" fill="black"/>
<path opacity="0.1" d="M197.467 131.034C196.077 129.505 194.178 128.484 192.903 126.864C191.829 125.43 191.216 123.705 191.144 121.915C190.954 124.151 191.578 126.381 192.903 128.194C194.178 129.819 196.077 130.84 197.467 132.369C198.802 133.865 199.603 135.76 199.746 137.759C199.838 136.543 199.684 135.32 199.293 134.164C198.901 133.008 198.28 131.944 197.467 131.034Z" fill="black"/>
<path opacity="0.1" d="M245.567 112.79C245.211 114.271 244.576 115.679 244.286 117.171C244.114 118.169 244.051 119.182 244.098 120.193C244.118 119.617 244.181 119.043 244.286 118.477C244.576 116.978 245.211 115.576 245.567 114.096C245.775 113.279 245.842 112.433 245.767 111.594C245.729 111.997 245.662 112.397 245.567 112.79Z" fill="black"/>
</g>
<path opacity="0.1" d="M80.2358 459.615C112.767 459.615 139.139 455.381 139.139 450.158C139.139 444.935 112.767 440.701 80.2358 440.701C47.7047 440.701 21.333 444.935 21.333 450.158C21.333 455.381 47.7047 459.615 80.2358 459.615Z" fill="#00C4CC"/>
<path d="M82.1337 268.993H78.3435V354.3H82.1337V268.993Z" fill="#535461"/>
<path d="M105.951 354.04L105.715 357.883L105.377 363.322L105.238 365.582L104.905 371.02L104.76 373.28L104.422 378.719L100.601 440.399C100.435 443.052 99.2639 445.543 97.3256 447.364C95.3872 449.185 92.8276 450.199 90.1677 450.2H70.3037C67.6444 450.199 65.0855 449.185 63.1481 447.364C61.2107 445.543 60.0406 443.052 59.876 440.399L56.0737 378.677L55.7352 373.238L55.5962 370.978L55.2576 365.54L55.1186 363.279L54.7801 357.841L54.5383 353.998C54.4963 353.258 54.6059 352.517 54.8605 351.822C55.115 351.126 55.5091 350.489 56.0185 349.951C56.528 349.413 57.142 348.985 57.8231 348.692C58.5041 348.4 59.2377 348.25 59.9788 348.251H100.607C101.346 348.257 102.075 348.415 102.75 348.714C103.425 349.013 104.032 349.447 104.533 349.989C105.033 350.532 105.418 351.171 105.662 351.868C105.906 352.564 106.004 353.304 105.951 354.04Z" fill="#3F3D56"/>
<path d="M105.715 357.883L105.377 363.304H55.0944L54.7559 357.883H105.715Z" fill="#9D9CB5"/>
<path d="M105.238 365.564L104.905 370.99H55.5719L55.2334 365.564H105.238Z" fill="#9D9CB5"/>
<path d="M104.76 373.256L104.428 378.677H56.0495L55.7109 373.256H104.76Z" fill="#9D9CB5"/>
<path d="M48.9708 300.965C71.0413 316.931 80.2539 341.9 80.2539 341.9C80.2539 341.9 53.6557 340.987 31.5793 325.022C9.50284 309.057 0.30835 284.094 0.30835 284.094C0.30835 284.094 26.8944 285 48.9708 300.965Z" fill="#00C4CC"/>
<path d="M0.290283 284.094C0.290283 284.094 27.904 299.412 36.76 312.096C45.6159 324.78 80.2539 341.9 80.2539 341.9" stroke="#535461" stroke-width="2" stroke-miterlimit="10"/>
<path d="M63.2188 268.805C75.2303 277.489 80.2537 291.079 80.2537 291.079C80.2537 291.079 65.7759 290.584 53.7583 281.9C41.7408 273.217 36.7295 259.62 36.7295 259.62C36.7295 259.62 51.2013 260.116 63.2188 268.805Z" fill="#00C4CC"/>
<path d="M36.7295 259.62C36.7295 259.62 51.7574 267.959 56.5753 274.86C61.3932 281.761 80.2537 291.079 80.2537 291.079" stroke="#535461" stroke-width="2" stroke-miterlimit="10"/>
<path d="M97.6937 290.39C83.8929 305.552 80.9731 325.367 80.9731 325.367C80.9731 325.367 100.432 320.593 114.221 305.425C128.01 290.257 130.941 270.449 130.941 270.449C130.941 270.449 111.495 275.229 97.6937 290.39Z" fill="#00C4CC"/>
<path d="M130.953 270.455C130.953 270.455 112.976 285.997 108.405 296.705C103.835 307.413 80.9731 325.367 80.9731 325.367" stroke="#535461" stroke-width="2" stroke-miterlimit="10"/>
<path d="M604.304 285.054C604.304 285.054 594.323 235.418 598.144 229.243C598.144 229.243 598.283 223.502 598.053 216.184C598.053 215.906 598.053 215.628 598.053 215.344C598.725 215.792 599.426 216.196 600.151 216.552C603.671 218.36 607.712 218.882 611.576 218.027L608.553 214.661C607.828 213.857 607.072 212.987 606.915 211.924C606.758 210.86 607.193 209.911 607.568 208.963C610.439 201.711 610.59 192.592 605.059 187.057C600.386 182.404 599.25 176.398 594.178 172.149C590.473 169.037 588.435 164.475 586.513 160.064C584.887 156.335 583.249 152.577 582.318 148.624C581.592 145.537 581.302 142.34 580.305 139.325C579.307 136.309 577.439 133.378 574.52 132.031C573.48 131.553 572.325 131.281 571.376 130.647C570.131 129.807 569.381 128.441 568.481 127.245C563.905 121.202 548.58 124.761 541.326 127.215C539.354 127.832 537.528 128.844 535.958 130.188L536.025 130.079C536.079 129.988 536.146 129.898 536.206 129.807C535.412 130.449 534.726 131.214 534.175 132.073C533.117 133.747 532.676 135.699 531.793 137.512C530.729 139.657 524.811 145.645 527.356 148.056C527.535 148.218 527.739 148.349 527.961 148.443C528.916 148.841 529.968 148.946 530.983 148.745L530.875 149.005C530.005 151.132 529.56 153.409 529.563 155.707C529.563 165.635 537.754 173.684 547.867 173.684C549.768 173.686 551.659 173.395 553.471 172.82C553.513 173.05 553.549 173.279 553.592 173.509C553.592 173.6 553.622 173.69 553.634 173.781L553.314 174.228C553.298 174.201 553.279 174.174 553.259 174.15L543.769 187.408C542.318 188.429 533.964 194.472 533.492 199.004C532.996 203.965 532.501 209.772 532.501 209.772L532.434 211.017C532.019 211.364 531.534 211.616 531.012 211.757C530.491 211.898 529.944 211.924 529.412 211.833C526.45 211.35 526.45 222.71 526.45 222.71C526.45 222.71 524.479 224.523 523.125 222.952C521.771 221.381 518.192 226.705 518.192 226.705L495.765 227.671L495.251 227.702L494.042 223.961C493.912 223.566 493.631 223.239 493.261 223.05C492.891 222.861 492.461 222.826 492.065 222.952C491.972 222.983 491.881 223.021 491.793 223.067L491.709 223.115L491.552 223.224L491.473 223.296C491.43 223.336 491.389 223.378 491.352 223.423L491.28 223.508L491.243 223.544C491.104 223.737 491.011 223.96 490.973 224.195C490.936 224.43 490.954 224.671 491.026 224.898L492.065 228.106C487.737 228.977 483.312 231.43 486.921 238.186L468.629 234.808L474.547 239.775L505.098 246.078C504.693 246.803 504.959 247.855 506.223 249.335C511.663 255.722 521.577 257.457 525.567 257.904C526.621 260.26 527.937 262.49 529.49 264.551L529.146 270.914C529.146 270.914 519.044 319.414 517.195 321.874C518.128 320.816 518.983 319.691 519.752 318.508C516.82 328.473 512.721 342.111 511.645 344.154C509.916 347.417 508.314 360.621 510.285 361.467C510.89 361.727 512.619 361.6 515.085 361.412V362.506L514.976 403.954C514.976 403.954 515.472 429.376 514.112 431.8C512.752 434.223 512.389 439.305 512.389 439.305C512.389 439.305 506.948 449.33 502.638 453.361C502.609 453.392 502.576 453.42 502.541 453.445L502.408 452.503C502.408 452.503 497.228 459.041 485.766 458.672C485.766 458.672 478.869 463.156 489.097 463.398C499.325 463.64 512.389 463.035 512.389 463.035C512.389 463.035 521.511 449.137 529.152 450.95V461.482H531.491V450.78C532.576 450.066 533.505 449.14 534.221 448.056C534.936 446.973 535.425 445.755 535.656 444.478C535.856 443.161 535.71 441.814 535.231 440.571C534.751 439.328 533.956 438.232 532.924 437.389C532.46 436.97 532.088 436.46 531.831 435.89C531.574 435.32 531.438 434.703 531.431 434.078L531.346 434.15C531.346 433.939 531.292 433.721 531.267 433.498C530.596 428.059 529.756 416.838 532.724 408.535C536.793 397.15 538.026 381.293 535.064 371.854C534.108 368.837 533.323 365.769 532.712 362.663C532.64 362.27 532.573 361.896 532.513 361.545C534.537 361.819 536.543 362.223 538.515 362.754C545.377 364.645 560.386 364.996 573.202 364.893C573.232 365.243 573.268 365.612 573.311 365.981C573.539 368.543 574.017 371.077 574.737 373.546C576.345 378.381 577.083 399.694 577.083 399.694C577.083 399.694 579.156 417.218 578.026 424.349C577.421 428.313 576.817 432.295 576.472 436.296V436.374C576.472 436.374 573.075 446.043 570.59 451.294C570.53 451.427 570.463 451.56 570.403 451.687C569.741 451.747 569.089 451.891 568.463 452.116C568.463 452.116 565.132 458.763 561.813 459.863C558.494 460.963 559.594 464.582 567.108 463.253C574.622 461.923 585.969 460.836 585.969 460.836L586.459 454.056L588.768 451.167L588.163 457.929L590.624 457.446L590.297 449.221L594.075 444.496C594.075 444.496 598.639 440.435 591.857 432.446V432.622C591.784 432.507 591.718 432.386 591.639 432.271V432.235C590.515 430.494 589.62 427.249 591.258 421.491C594.22 411.085 595.943 401.64 595.943 401.64C595.943 401.64 602.557 376.338 594.607 364.367H594.958C594.143 362.683 593.567 360.893 593.247 359.05C593.207 358.832 593.171 358.608 593.138 358.379C599.02 358.04 604.793 356.977 609.502 354.681C609.484 354.656 606.649 294.614 604.304 285.054ZM529.629 243.177V243.298L528.42 243.359L529.629 243.177ZM525.482 243.751C525.284 243.795 525.097 243.884 524.938 244.011C524.419 244.746 524.092 245.601 523.989 246.495L522.103 246.072C522.103 246.072 520.779 245.788 518.875 245.468L517.974 244.561C520.453 244.356 523.028 244.054 525.482 243.751Z" fill="url(#paint1_linear)"/>
<path d="M587.885 449.306L587.166 457.869L589.578 457.385L589.215 448.097L587.885 449.306Z" fill="#1D2366"/>
<path d="M532.857 408.649C529.95 416.928 530.772 428.101 531.424 433.528C531.666 435.534 531.89 436.755 531.89 436.755C531.89 436.755 527.544 446.653 527.181 447.028C526.818 447.402 514.39 454.986 514.39 454.986L505.703 460.056C505.703 460.056 496.889 456.195 501.115 454.865C501.978 454.519 502.756 453.989 503.394 453.312C507.625 449.294 512.939 439.305 512.939 439.305C512.939 439.305 513.302 434.235 514.631 431.824C515.961 429.413 515.478 404.075 515.478 404.075L515.581 362.772V357.388L532.114 357.509C532.218 359.336 532.456 361.154 532.827 362.947C533.42 366.042 534.189 369.101 535.13 372.108C538.044 381.529 536.835 397.307 532.857 408.649Z" fill="#FFB0B1"/>
<path opacity="0.1" d="M531.89 436.755C531.89 436.755 527.544 446.653 527.181 447.028C526.818 447.402 514.39 454.986 514.39 454.986L505.703 460.056C505.703 460.056 496.889 456.195 501.115 454.865C501.978 454.519 502.756 453.989 503.394 453.312L503.769 455.953L506.664 455.832L531.449 433.54C531.666 435.534 531.89 436.755 531.89 436.755Z" fill="black"/>
<path d="M531.588 434.102L506.664 456.545L503.769 456.666L503.164 452.436C503.164 452.436 498.098 458.95 486.843 458.588C486.843 458.588 480.084 463.053 490.101 463.295C500.117 463.537 512.909 462.933 512.909 462.933C512.909 462.933 521.843 449.034 529.321 450.847V461.343H531.618V450.75C532.686 450.031 533.598 449.104 534.298 448.024C534.998 446.944 535.472 445.734 535.693 444.466C535.891 443.159 535.751 441.824 535.284 440.588C534.817 439.352 534.04 438.256 533.027 437.407C532.574 436.984 532.213 436.472 531.966 435.903C531.719 435.335 531.59 434.722 531.588 434.102Z" fill="#1D2366"/>
<path d="M590.182 421.557C588.574 427.298 589.451 430.531 590.551 432.265V432.301C591.962 434.443 592.943 436.838 593.44 439.353L593.537 439.897L582.197 456.424L576.043 458.842C576.043 458.842 566.147 455.464 567.955 454.497C568.408 454.261 569.115 453.004 569.925 451.27C572.343 446.043 575.68 436.398 575.68 436.398V436.32C576.031 432.337 576.587 428.367 577.204 424.415C578.31 417.303 576.279 399.845 576.279 399.845C576.279 399.845 575.553 378.616 573.982 373.788C573.272 371.333 572.8 368.816 572.573 366.271C572.247 363.249 572.174 360.76 572.174 360.76C572.174 360.76 578.691 351.695 590.636 361.485C591.591 362.266 592.431 363.177 593.132 364.192C601.384 375.927 594.74 401.779 594.74 401.779C594.74 401.779 593.078 411.181 590.182 421.557Z" fill="#FFB0B1"/>
<path opacity="0.1" d="M593.555 439.897L582.215 456.424L576.061 458.842C576.061 458.842 566.165 455.464 567.973 454.497C568.426 454.261 569.134 453.004 569.944 451.27C574.133 451.234 576.303 455.222 576.303 455.222L581.61 454.376C581.61 454.376 588.611 440.622 590.182 439.782C591.754 438.942 590.424 433.504 590.424 433.504V432.12C590.466 432.168 590.503 432.223 590.551 432.271V432.307C591.962 434.449 592.944 436.844 593.441 439.359L593.555 439.897Z" fill="black"/>
<path d="M576.666 455.578C576.666 455.578 573.643 450.031 567.852 452.08C567.852 452.08 564.594 458.727 561.336 459.802C558.077 460.878 559.165 464.504 566.528 463.18C573.891 461.857 584.99 460.763 584.99 460.763L585.473 454.001L592.957 444.472C592.957 444.472 597.418 440.429 590.781 432.47V433.854C590.781 433.854 592.111 439.293 590.539 440.133C588.967 440.973 581.991 454.732 581.991 454.732L576.666 455.578Z" fill="#1D2366"/>
<path opacity="0.1" d="M532.132 357.496C532.236 359.324 532.475 361.142 532.845 362.935C526.038 361.938 519.721 362.434 515.581 362.76V357.376L532.132 357.496Z" fill="black"/>
<path opacity="0.1" d="M593.803 365.697C593.803 365.697 584.131 366.168 572.597 366.265C572.271 363.243 572.198 360.754 572.198 360.754C572.198 360.754 578.715 351.689 590.66 361.479C591.615 362.26 592.455 363.171 593.156 364.186C593.344 364.701 593.56 365.206 593.803 365.697Z" fill="black"/>
<path d="M593.803 364.609C593.803 364.609 551.44 366.657 538.528 363.038C525.615 359.418 512.818 362.554 510.89 361.714C508.961 360.874 510.527 347.719 512.22 344.462C513.912 341.205 523.197 308.265 523.197 308.265L532.132 261.699L541.544 259.106L542.209 258.919L558.609 254.399L570.627 251.081C570.627 251.081 594.523 344.341 592.473 351.218C591.729 353.851 591.609 356.622 592.123 359.309C592.436 361.145 593.001 362.928 593.803 364.609Z" fill="#1D2366"/>
<path d="M500.988 229.853C500.988 229.853 492.525 238.917 498.933 243.969C505.34 249.021 509.554 244.452 509.554 244.452L500.988 229.853Z" fill="#C7DAF5"/>
<path opacity="0.1" d="M500.988 229.853C500.988 229.853 492.525 238.917 498.933 243.969C505.34 249.021 509.554 244.452 509.554 244.452L500.988 229.853Z" fill="black"/>
<path d="M569.363 170.258C569.363 170.258 568.372 171.201 566.879 172.591C564.751 174.579 561.601 177.485 558.809 179.921C554.94 183.286 551.748 185.758 552.89 183.649C554.033 181.54 553.815 177.866 553.247 174.428C553.205 174.198 553.169 173.968 553.126 173.745C552.656 171.22 552.032 168.725 551.258 166.276C551.258 166.276 557.509 158.202 560.967 155.018C562.254 153.809 563.155 153.314 563.209 154.154C563.27 155.284 564.116 157.779 565.168 160.426C565.198 160.511 565.228 160.589 565.265 160.674C565.966 162.487 566.758 164.348 567.453 165.955C568.517 168.421 569.363 170.258 569.363 170.258Z" fill="#FFB0B1"/>
<path opacity="0.1" d="M565.265 160.674C564.677 163.832 563.252 166.775 561.138 169.194C559.024 171.614 556.299 173.421 553.247 174.428C552.766 171.669 552.102 168.946 551.258 166.276C551.258 166.276 563.028 151.078 563.209 154.154C563.252 155.32 564.17 157.906 565.265 160.674Z" fill="black"/>
<path opacity="0.1" d="M552.074 178.488L553.598 176.343C553.598 176.343 554.607 182.495 558.319 179.782C562.031 177.068 562.212 200.2 562.212 200.2L558.228 259.741L529.442 258.019L530.258 229.249L533.516 214.746L541.574 193.662L546.368 186.695L552.074 178.488Z" fill="black"/>
<path d="M562.212 200.569L558.585 254.405L558.204 260.11L542.155 259.149L541.55 259.112L529.46 258.387L530.276 229.611L533.534 215.108L541.592 194.025L546.386 187.057L552.093 178.821L553.616 176.682C553.616 176.682 554.625 182.833 558.337 180.12L558.416 180.066C562.043 177.769 562.212 200.569 562.212 200.569Z" fill="#1D2366"/>
<path d="M533.939 210.068C533.939 210.068 532.495 213.09 529.593 212.6C526.691 212.111 526.697 223.478 526.697 223.478C526.697 223.478 524.769 225.29 523.439 223.719C522.109 222.148 518.603 227.46 518.603 227.46L496.635 228.427C496.635 228.427 506.41 232.892 504.494 246.404C504.494 246.404 537.681 244.35 538.769 241.213C539.857 238.077 533.939 210.068 533.939 210.068Z" fill="white"/>
<path opacity="0.03" d="M533.939 210.068C533.939 210.068 532.495 213.09 529.593 212.6C526.691 212.111 526.697 223.478 526.697 223.478C526.697 223.478 524.769 225.29 523.439 223.719C522.109 222.148 518.603 227.46 518.603 227.46L496.635 228.427C496.635 228.427 506.41 232.892 504.494 246.404C504.494 246.404 537.681 244.35 538.769 241.213C539.857 238.077 533.939 210.068 533.939 210.068Z" fill="black"/>
<path d="M470.098 235.527L475.889 240.47L523.56 250.483L517.648 244.452L470.098 235.527Z" fill="white"/>
<path d="M552.165 180.392C551.373 181.6 549.106 187.788 547.214 193.191C545.636 197.693 544.319 201.651 544.319 201.651C544.319 201.651 541.242 221.677 539.67 225.297C538.098 228.916 538.951 243.032 538.951 243.032L533.093 277.894C533.093 277.894 530.439 295.871 526.341 306.609C522.297 317.178 517.793 322.134 517.654 322.291C519.468 319.837 529.351 271.531 529.351 271.531L532.616 210.606C532.616 210.606 533.093 204.817 533.577 199.868C534.06 194.919 543.853 188.163 543.853 188.163L553.296 174.742C554.245 176.011 553.61 178.223 552.165 180.392Z" fill="white"/>
<path d="M527.544 258.689C527.544 258.689 513.64 258.085 506.906 250C500.172 241.914 522.472 246.773 522.472 246.773L528.269 248.102L527.544 258.689Z" fill="#FFB0B1"/>
<path opacity="0.1" d="M592.473 351.224C591.729 353.857 591.609 356.628 592.123 359.315C576.956 360.391 560.731 356.294 560.731 356.294C557.708 359.074 549.747 363.171 549.747 363.171L545.407 309.389C542.632 302.138 541.544 264.146 541.544 264.146C541.544 264.146 541.792 262.158 542.149 259.179C542.149 259.106 542.149 259.028 542.179 258.955C543.261 250.634 545.407 235.013 546.459 232.904C547.909 230.004 541.997 222.287 541.997 222.287L544.687 199.354L545.014 196.587C550.684 194.055 555.031 185.969 555.031 185.969L558.367 180.126C561.994 177.8 562.182 200.599 562.182 200.599L558.555 254.435L570.572 251.118C570.572 251.118 594.523 344.347 592.473 351.224Z" fill="black"/>
<path d="M608.039 354.94C591.506 363.147 561.456 355.545 561.456 355.545C558.434 358.324 550.472 362.421 550.472 362.421L546.126 308.64C543.357 301.388 542.269 263.397 542.269 263.397C542.269 263.397 545.763 235.05 547.214 232.155C547.637 231.309 547.432 230.052 546.93 228.699C544.463 222.256 543.556 215.321 544.282 208.461L545.443 198.605L545.763 195.844C551.44 193.306 555.786 185.22 555.786 185.22L558.809 179.927L564.37 170.173L567.006 165.557L567.453 165.962L570.868 169.055C570.868 169.055 572.319 170.264 574.495 172.077C579.229 176.065 587.408 183.087 591.627 187.383C595.339 191.166 596.511 205.881 596.85 216.957C597.074 224.251 596.941 229.968 596.941 229.968C593.199 236.125 602.986 285.562 602.986 285.562C605.265 295.116 608.039 354.94 608.039 354.94Z" fill="white"/>
<path opacity="0.03" d="M576.303 185.099C576.303 185.099 564.956 206.69 566.274 214.897C567.592 223.103 571.34 232.391 569.533 234.56C568.912 235.382 568.109 236.049 567.187 236.509C566.265 236.97 565.249 237.21 564.219 237.213C562.405 237.334 557.569 240.712 557.569 241.074C557.569 241.437 553.102 241.437 549.106 243.129C545.111 244.821 539.211 245.782 539.211 245.782C539.211 245.782 527.725 245.419 526.655 246.507C525.585 247.595 524.485 254.103 526.776 259.294C529.067 264.485 531.612 268.358 533.534 269.065C535.457 269.772 547.656 265.687 557.551 264.72C567.447 263.753 578.189 255.916 578.189 255.916C578.189 255.916 590.019 251.686 592.093 244.573C594.166 237.461 589.56 198.369 589.56 198.369C589.56 198.369 586.078 180.15 576.303 185.099Z" fill="black"/>
<path opacity="0.03" d="M574.852 183.286C574.852 183.286 563.506 204.884 564.836 213.084C566.165 221.284 569.901 230.578 568.088 232.753C567.469 233.576 566.667 234.244 565.746 234.704C564.825 235.165 563.81 235.405 562.78 235.406C560.967 235.527 556.131 238.905 556.131 239.268C556.131 239.63 551.663 239.63 547.668 241.316C543.672 243.002 537.772 243.969 537.772 243.969C537.772 243.969 526.286 243.606 525.222 244.694C524.159 245.782 523.046 252.296 525.343 257.481C527.64 262.666 530.179 266.545 532.102 267.252C534.024 267.959 546.223 263.874 556.119 262.913C566.014 261.953 576.756 254.103 576.756 254.103C576.756 254.103 588.58 249.873 590.63 242.766C592.679 235.66 588.097 196.557 588.097 196.557C588.097 196.557 584.627 178.343 574.852 183.286Z" fill="black"/>
<path d="M575.946 184.012C575.946 184.012 564.6 205.609 565.93 213.809C567.26 222.009 570.995 231.303 569.188 233.473C568.569 234.297 567.767 234.967 566.845 235.428C565.923 235.89 564.906 236.13 563.874 236.131C562.061 236.252 557.225 239.63 557.225 239.987C557.225 240.343 552.764 240.349 548.762 242.041C544.76 243.733 538.866 244.694 538.866 244.694C538.866 244.694 527.38 244.332 526.31 245.419C525.24 246.507 524.14 253.021 526.431 258.206C528.722 263.391 531.267 267.27 533.19 267.977C535.112 268.684 547.311 264.599 557.207 263.633C567.102 262.666 577.844 254.828 577.844 254.828C577.844 254.828 589.674 250.598 591.748 243.486C593.821 236.373 589.245 197.282 589.245 197.282C589.245 197.282 585.715 179.093 575.946 184.012Z" fill="white"/>
<path opacity="0.1" d="M575.698 241.939C575.698 241.939 566.631 240.126 569.786 243.147C572.942 246.169 572.924 248.815 576.787 248.695C580.649 248.574 575.698 241.939 575.698 241.939Z" fill="black"/>
<path opacity="0.1" d="M591.023 306.948C591.023 306.948 586.924 309.722 594.765 316.115C602.605 322.508 591.023 306.948 591.023 306.948Z" fill="black"/>
<path opacity="0.1" d="M583.2 329.748C583.2 330.11 581.75 343.042 587.178 346.275C592.606 349.508 583.2 329.748 583.2 329.748Z" fill="black"/>
<path d="M497.01 228.396C492.634 228.548 483.179 229.883 488.082 239.026C492.416 247.117 499.7 241.709 503.799 237.606C502.799 233.78 500.369 230.484 497.01 228.396Z" fill="#FFB0B1"/>
<path d="M503.853 237.533L504.035 237.346L503.853 237.533Z" fill="#FFB0B1"/>
<path opacity="0.1" d="M574.495 172.446C569.853 175.618 565.96 178.295 565.198 178.851C563.119 180.392 559.153 189.438 556.596 194.055C554.559 197.771 547.94 198.726 545.443 198.962L545.764 196.2C551.44 193.662 555.786 185.577 555.786 185.577L567.006 165.913L570.868 169.424C570.868 169.424 572.319 170.633 574.495 172.446Z" fill="black"/>
<path d="M574.495 172.083C569.853 175.255 565.96 177.932 565.198 178.494C563.119 180.029 559.153 189.076 556.596 193.692C554.559 197.409 547.94 198.363 545.443 198.599L545.764 195.837C551.44 193.299 555.786 185.214 555.786 185.214L567.006 165.551L570.868 169.049C570.868 169.049 572.319 170.246 574.495 172.083Z" fill="#DCE7FF"/>
<path d="M565.561 156.686C565.564 160.313 564.463 163.856 562.405 166.844C559.975 170.377 556.359 172.922 552.212 174.017C548.066 175.113 543.664 174.686 539.805 172.814C535.946 170.943 532.886 167.75 531.181 163.817C529.475 159.883 529.237 155.468 530.508 151.374C531.78 147.279 534.479 143.776 538.113 141.5C541.748 139.224 546.078 138.326 550.319 138.968C554.559 139.611 558.429 141.752 561.226 145.002C564.022 148.253 565.56 152.398 565.561 156.686Z" fill="#FFB0B1"/>
<path opacity="0.1" d="M596.85 216.963C594.395 215.454 592.396 213.307 591.065 210.751C590.055 208.757 589.384 206.455 587.661 205.041C586.108 203.772 584.034 203.464 582.1 202.896C575.741 201.016 570.409 195.215 570.21 188.592C570.113 185.474 571.086 182.362 570.645 179.274C570.394 177.526 569.699 175.872 568.626 174.47C568.093 173.799 567.509 173.171 566.879 172.59C566.032 171.793 565.144 171.019 564.37 170.173C563.883 169.65 563.457 169.072 563.101 168.451C562.813 167.943 562.58 167.407 562.405 166.85C561.196 163.152 562.297 158.764 560.967 155.024L560.894 154.818C560.392 153.489 559.371 152.16 557.95 152.057C556.53 151.954 555.315 153.132 553.96 153.658C551.125 154.758 548.067 152.885 545.703 150.975C543.339 149.066 540.673 146.884 537.669 147.307C535.68 147.591 534.109 148.945 532.277 149.646C531.863 149.806 531.437 149.929 531.001 150.014C532.552 146.15 535.4 142.946 539.056 140.953C542.713 138.959 546.949 138.301 551.039 139.091C555.128 139.881 558.814 142.07 561.464 145.282C564.115 148.494 565.563 152.528 565.561 156.692C565.563 157.949 565.431 159.203 565.168 160.432C565.198 160.517 565.228 160.595 565.265 160.68C565.966 162.493 566.758 164.354 567.453 165.961L570.868 169.055C570.868 169.055 572.319 170.264 574.495 172.077C579.229 176.065 587.408 183.087 591.627 187.383C595.339 191.178 596.499 205.887 596.85 216.963Z" fill="black"/>
<path d="M532.065 138.605C532.93 136.847 533.359 134.877 534.393 133.209C535.91 130.792 538.558 129.245 541.278 128.308C548.381 125.861 563.391 122.308 567.876 128.308C568.759 129.517 569.49 130.858 570.711 131.692C571.642 132.327 572.767 132.599 573.788 133.076C576.647 134.418 578.473 137.342 579.446 140.328C580.42 143.313 580.71 146.516 581.423 149.591C582.336 153.537 583.938 157.278 585.534 160.994C587.414 165.381 589.409 169.932 593.036 173.032C597.986 177.262 599.081 183.25 603.675 187.891C609.115 193.402 608.94 202.497 606.135 209.718C605.766 210.667 605.349 211.658 605.494 212.667C605.639 213.676 606.389 214.595 607.096 215.398L610.07 218.752C603.034 220.45 595.073 216.776 591.796 210.328C590.787 208.334 590.116 206.038 588.387 204.618C586.839 203.349 584.76 203.047 582.832 202.479C576.472 200.593 571.14 194.786 570.941 188.163C570.844 185.051 571.817 181.939 571.376 178.857C571.131 177.098 570.433 175.432 569.351 174.023C567.689 171.853 565.18 170.397 563.826 167.98C561.535 163.937 563.276 158.686 561.626 154.347C561.118 153.018 560.102 151.688 558.682 151.586C557.261 151.483 556.046 152.661 554.686 153.187C551.857 154.287 548.798 152.419 546.434 150.504C544.071 148.588 541.405 146.413 538.395 146.842C536.406 147.12 534.84 148.473 533.008 149.18C531.654 149.7 528.91 150.165 527.725 149.023C525.222 146.721 531.02 140.757 532.065 138.605Z" fill="#591D4B"/>
<path opacity="0.1" d="M593.477 208.334C592.461 206.34 591.796 204.044 590.067 202.63C588.52 201.361 586.44 201.052 584.506 200.484C578.153 198.605 572.821 192.798 572.615 186.175C572.519 183.063 573.492 179.945 573.057 176.863C572.804 175.115 572.106 173.461 571.032 172.059C569.363 169.889 566.855 168.433 565.507 166.016C563.215 161.979 564.956 156.728 563.3 152.383C562.798 151.06 561.777 149.73 560.362 149.622C558.948 149.513 557.721 150.703 556.366 151.229C553.537 152.329 550.473 150.455 548.115 148.546C545.757 146.636 543.079 144.455 540.075 144.878C538.086 145.162 536.515 146.516 534.689 147.217C533.335 147.736 530.584 148.208 529.4 147.065C526.909 144.648 532.706 138.696 533.746 136.557C534.61 134.792 535.04 132.828 536.079 131.161C536.134 131.07 536.194 130.979 536.255 130.889C535.477 131.533 534.806 132.295 534.266 133.149C533.232 134.817 532.803 136.774 531.939 138.545C530.893 140.684 525.096 146.655 527.592 149.054C528.801 150.202 531.521 149.73 532.875 149.211C534.689 148.504 536.273 147.15 538.262 146.872C541.284 146.443 543.944 148.624 546.302 150.534C548.659 152.444 551.742 154.317 554.559 153.217C555.913 152.691 557.098 151.507 558.549 151.616C559.999 151.724 560.967 153.048 561.493 154.377C563.143 158.716 561.402 163.967 563.693 168.01C565.047 170.385 567.556 171.871 569.218 174.053C570.3 175.462 570.998 177.128 571.243 178.887C571.685 181.969 570.711 185.081 570.808 188.193C571.008 194.84 576.339 200.623 582.699 202.509C584.615 203.077 586.706 203.379 588.254 204.648C589.989 206.068 590.672 208.364 591.663 210.358C594.94 216.806 602.901 220.48 609.937 218.782L608.535 217.199C602.436 217.29 596.264 213.821 593.477 208.334Z" fill="black"/>
<path opacity="0.1" d="M551.802 180.754C551.01 181.963 548.744 188.151 546.852 193.553C545.08 192.864 543.472 188.471 543.472 188.471L552.915 175.044C553.882 176.373 553.247 178.579 551.802 180.754Z" fill="black"/>
<path d="M552.165 180.392C551.373 181.6 549.106 187.788 547.214 193.191C545.443 192.508 543.835 188.109 543.835 188.109L553.277 174.687C554.245 176.011 553.61 178.223 552.165 180.392Z" fill="#DCE7FF"/>
<path d="M497.264 242.126L492.029 225.623C491.967 225.43 491.944 225.226 491.961 225.024C491.978 224.822 492.035 224.625 492.128 224.445C492.221 224.264 492.349 224.104 492.504 223.974C492.66 223.843 492.839 223.744 493.033 223.683C493.422 223.561 493.844 223.599 494.206 223.787C494.569 223.974 494.842 224.298 494.967 224.686L500.202 241.171L499.682 244.622L497.264 242.126Z" fill="#BE8B87"/>
<path opacity="0.1" d="M492.525 224.173C492.915 224.049 493.339 224.085 493.702 224.273C494.066 224.461 494.34 224.786 494.465 225.176L499.7 241.661L499.307 244.247L499.688 244.646L500.208 241.195L494.943 224.71C494.818 224.322 494.545 223.999 494.182 223.811C493.82 223.623 493.398 223.586 493.008 223.707C492.681 223.814 492.398 224.026 492.204 224.312C492.307 224.256 492.414 224.21 492.525 224.173Z" fill="white"/>
<path d="M497.264 242.126L500.202 241.195L499.773 244.023L499.682 244.646L498.824 243.751L497.264 242.126Z" fill="#EFC8C4"/>
<path d="M498.824 243.751C498.875 243.687 498.939 243.633 499.011 243.594C499.054 243.567 499.103 243.553 499.153 243.553C499.204 243.553 499.253 243.567 499.295 243.594C499.336 243.644 499.371 243.699 499.398 243.757C499.438 243.824 499.492 243.881 499.557 243.924C499.622 243.967 499.696 243.995 499.773 244.005L499.682 244.61L498.824 243.751Z" fill="#727A9C"/>
<path d="M491.999 231.484C491.999 231.484 502.499 231.424 500.027 235.89C497.554 240.355 493.692 240.893 493.692 240.893L491.999 231.484Z" fill="#FFB0B1"/>
<path d="M426.695 31.0724H426.241C408.203 31.0724 392.25 40.6141 383.074 54.694C373.897 40.6141 357.944 31.0724 339.906 31.0724H339.453C325.915 31.2014 312.976 36.6657 303.446 46.278C293.917 55.8902 288.567 68.8736 288.56 82.4067C288.56 99.2119 295.922 123.057 310.279 142.678C337.633 180.066 383.074 212.776 383.074 212.776C383.074 212.776 428.514 180.072 455.862 142.678C470.225 123.057 477.582 99.2119 477.582 82.4067C477.574 68.8746 472.225 55.8922 462.697 46.2801C453.169 36.668 440.231 31.203 426.695 31.0724ZM420.208 145.555C418.154 145.547 416.15 144.918 414.459 143.751C412.769 142.585 411.471 140.934 410.736 139.016H399.951C399.241 139.012 398.55 138.786 397.975 138.37C397.399 137.954 396.968 137.369 396.741 136.696L393.429 126.719L382.947 163.333C382.743 164.038 382.315 164.657 381.729 165.099C381.142 165.54 380.428 165.779 379.694 165.78H379.483C378.717 165.743 377.987 165.445 377.415 164.934C376.843 164.424 376.463 163.733 376.339 162.976L365.537 98.0275L357.642 136.46C357.461 137.19 357.041 137.839 356.448 138.302C355.855 138.765 355.124 139.017 354.372 139.016H339.181C338.725 139.036 338.271 138.963 337.844 138.802C337.418 138.641 337.028 138.395 336.699 138.08C336.37 137.765 336.108 137.386 335.93 136.967C335.751 136.548 335.659 136.097 335.659 135.641C335.659 135.186 335.751 134.735 335.93 134.316C336.108 133.897 336.37 133.518 336.699 133.203C337.028 132.888 337.418 132.642 337.844 132.481C338.271 132.32 338.725 132.247 339.181 132.266H351.712L362.895 80.5938C363.079 79.8298 363.522 79.1533 364.15 78.68C364.777 78.2066 365.549 77.9657 366.334 77.9985C367.12 78.0314 367.869 78.3359 368.455 78.8599C369.04 79.384 369.426 80.0952 369.545 80.8718L380.577 147.126L389.971 114.367C390.167 113.678 390.58 113.069 391.15 112.634C391.72 112.198 392.415 111.958 393.133 111.95H393.199C393.909 111.951 394.602 112.175 395.177 112.592C395.752 113.008 396.181 113.596 396.403 114.271L402.394 132.285H410.603C411.186 130.512 412.249 128.935 413.672 127.728C415.096 126.521 416.825 125.73 418.67 125.443C420.515 125.157 422.403 125.385 424.126 126.103C425.849 126.822 427.34 128.002 428.434 129.514C429.528 131.025 430.184 132.81 430.328 134.671C430.471 136.531 430.098 138.396 429.249 140.058C428.4 141.719 427.108 143.115 425.516 144.089C423.924 145.063 422.093 145.579 420.226 145.579L420.208 145.555Z" fill="#00C4CC"/>
</g>
<defs>
<linearGradient id="paint0_linear" x1="215.403" y1="468.244" x2="215.403" y2="96.402" gradientUnits="userSpaceOnUse">
<stop stop-color="#808080" stop-opacity="0.25"/>
<stop offset="0.54" stop-color="#808080" stop-opacity="0.12"/>
<stop offset="1" stop-color="#808080" stop-opacity="0.1"/>
</linearGradient>
<linearGradient id="paint1_linear" x1="134934" y1="280560" x2="134934" y2="89690.1" gradientUnits="userSpaceOnUse">
<stop stop-color="#808080" stop-opacity="0.25"/>
<stop offset="0.54" stop-color="#808080" stop-opacity="0.12"/>
<stop offset="1" stop-color="#808080" stop-opacity="0.1"/>
</linearGradient>
<clipPath id="clip0">
<rect width="668" height="473" fill="white"/>
</clipPath>
</defs>
</svg>
